<?xml version="1.0" encoding="UTF-8"?>
<svg width="9px" height="7px" viewBox="0 0 9 7" version="1.1" xmlns="http://www.w3.org/2000/svg" xmlns:xlink="http://www.w3.org/1999/xlink">
    <!-- Generator: Sketch 47.1 (45422) - http://www.bohemiancoding.com/sketch -->
    <title>icon_arrow_big_check</title>
    <desc>Created with Sketch.</desc>
    <defs></defs>
    <g id="1024x768" stroke="none" stroke-width="1" fill="none" fill-rule="evenodd">
        <g id="1024x768-settings-currency" transform="translate(-739.000000, -233.000000)" fill="#02BBD7">
            <g id="currency" transform="translate(721.000000, 195.000000)">
                <g id="1-selected" transform="translate(0.000000, 16.000000)">
                    <g id="icon_check" transform="translate(18.000000, 22.000000)">
                        <path d="M3.69007523,4.0041059 L7.49600313,0.0883091504 L7.49600313,0.0883091504 C7.61148175,-0.0305030878 7.80141202,-0.0332055179 7.92022426,0.0822731039 C7.9222648,0.084256391 7.92427702,0.0862686101 7.9262603,0.0883091504 L8.92056755,1.11131988 L8.92056755,1.11131988 C9.03372943,1.2277485 9.03372943,1.41307634 8.92056755,1.52950497 L3.68936996,6.91171585 L3.68936996,6.91171585 C3.57389133,7.03052808 3.38396107,7.03323051 3.26514883,6.91775189 C3.26274446,6.91541499 3.26037944,6.91303794 3.25805476,6.91062174 L0.0784194637,3.60581541 L0.0784194637,3.60581541 C-0.0337407977,3.4892398 -0.0332727577,3.30472953 0.0794774821,3.18872443 L1.07301365,2.16650704 L1.07301365,2.16650704 C1.18849227,2.0476948 1.37842254,2.04499237 1.49723477,2.160471 C1.49987254,2.16303475 1.50246292,2.1656468 1.50500462,2.16830582 L3.25808426,4.00230712 L3.25808426,4.00230712 C3.37256944,4.12207691 3.56247062,4.12636093 3.68224041,4.01187574 C3.68489943,4.00933405 3.68751148,4.00674366 3.69007523,4.0041059 Z" id="icon_arrow_big_check"></path>
                    </g>
                </g>
            </g>
        </g>
    </g>
</svg>