<?xml version="1.0" encoding="UTF-8"?>
<svg width="24px" height="24px" viewBox="0 0 24 24" version="1.1" xmlns="http://www.w3.org/2000/svg" xmlns:xlink="http://www.w3.org/1999/xlink" style="background: #000000;">
    <!-- Generator: Sketch Beta 43.2 (39068) - http://www.bohemiancoding.com/sketch -->
    <title>icon_refresh_destination</title>
    <desc>Created with Sketch Beta.</desc>
    <defs></defs>
    <g id="Symbols" stroke="none" stroke-width="1" fill="none" fill-rule="evenodd">
        <g id="icon_refresh_destination" fill="#FFFFFF">
            <path d="M19.1769101,21.6189266 L19.0466579,22.3333963 C18.9476056,22.8767259 19.3077636,23.3974793 19.8510932,23.4965316 C20.3944228,23.5955839 20.9151763,23.2354259 21.0142286,22.6920963 L21.7038562,18.9092947 C21.8391424,18.167212 21.2008627,17.53312 20.462322,17.6677604 L16.6795203,18.3573881 C16.1361907,18.4564404 15.7760328,18.9771938 15.875085,19.5205234 C15.9741373,20.0638531 16.4948907,20.424011 17.0382204,20.3249587 L17.7260191,20.1995689 C14.9100496,22.1623172 11.2027922,22.5856 7.93575434,21.131021 C4.60547113,19.6482834 2.48479456,16.5688527 2.07385893,13.1956235 C1.92338862,11.9630802 2.00304627,10.6832214 2.34372006,9.41180955 C2.48666187,8.87834345 2.17007938,8.33000649 1.63661328,8.18706468 C1.10314718,8.04412287 0.554810221,8.36070536 0.411868409,8.89417146 C-1.30343333,15.2957647 2.49555654,21.8758082 8.89714978,23.5911099 C12.0979464,24.4487608 15.3433556,23.9278388 18.0029783,22.3923048 C18.406392,22.1583102 18.7989277,21.9005673 19.1769101,21.6189266 Z" id="Combined-Shape" fill-rule="nonzero"></path>
            <path d="M4.82606827,2.38405172 L4.95632042,1.66958206 C5.0553727,1.12625243 4.69521474,0.605498995 4.15188511,0.506446714 C3.60855548,0.407394432 3.08780204,0.767552387 2.98874976,1.31088202 L2.29912212,5.09368367 C2.16383596,5.83576633 2.80211562,6.46985833 3.54065634,6.33521788 L7.32345799,5.64559024 C7.86678762,5.54653796 8.22694557,5.02578453 8.12789329,4.4824549 C8.02884101,3.93912526 7.50808758,3.57896731 6.96475795,3.67801959 L6.27695919,3.80340947 C9.09292874,1.84066115 12.8001861,1.41737837 16.067224,2.87195734 C19.3975072,4.35469495 21.5181838,7.43412559 21.9291194,10.8073548 C22.0795897,12.0398981 21.9999321,13.3197569 21.6592583,14.5911688 C21.5163165,15.1246349 21.8328989,15.6729718 22.366365,15.8159136 C22.8998311,15.9588555 23.4481681,15.642273 23.5911099,15.1088069 C25.3064117,8.70721363 21.5074218,2.12717015 15.1058285,0.411868409 C11.9050319,-0.44578246 8.65962274,0.0751395733 6,1.61067348 C5.59658634,1.84466812 5.20405066,2.10241098 4.82606827,2.38405172 Z" id="Combined-Shape" fill-rule="nonzero"></path>
            <path d="M9.21592492,13.0236058 C8.92641331,12.4582839 8.92964127,11.5354129 9.21592492,10.9763942 L11.4757928,5.42163105 C11.7653045,4.85630915 12.2379235,4.86261231 12.5242072,5.42163105 L14.7840751,10.9763942 C15.0735867,11.5417161 15.0703587,12.4645871 14.7840751,13.0236058 L12.5242072,18.5783689 C12.2346955,19.1436908 11.7620765,19.1373877 11.4757928,18.5783689 L9.21592492,13.0236058 Z M12,14 C13.1045695,14 14,13.1045695 14,12 C14,10.8954305 13.1045695,10 12,10 C10.8954305,10 10,10.8954305 10,12 C10,13.1045695 10.8954305,14 12,14 Z" id="Combined-Shape" transform="translate(12.000000, 12.000000) rotate(45.000000) translate(-12.000000, -12.000000) "></path>
        </g>
    </g>
</svg>