<?xml version="1.0" encoding="UTF-8"?>
<svg width="21px" height="17px" viewBox="0 0 21 17" version="1.1" xmlns="http://www.w3.org/2000/svg" xmlns:xlink="http://www.w3.org/1999/xlink">
    <!-- Generator: Sketch Beta 43.2 (39068) - http://www.bohemiancoding.com/sketch -->
    <title>icon_quote</title>
    <desc>Created with Sketch Beta.</desc>
    <defs></defs>
    <g id="Symbols" stroke="none" stroke-width="1" fill="none" fill-rule="evenodd">
        <g id="icon_quote" fill="#FFFFFF">
            <path d="M6.93729348,0.0425 L2.31273913,0.0425 C1.67025,0.0425 1.12384783,0.267565217 0.674086957,0.716586957 C0.22525,1.16634783 0,1.71275 0,2.35505435 L0,6.97979348 C0,7.62209783 0.22451087,8.16776087 0.674086957,8.61752174 C1.12384783,9.06709783 1.67025,9.2916087 2.31273913,9.2916087 L5.01001087,9.2916087 C5.33134783,9.2916087 5.60408696,9.40432609 5.82933696,9.62883696 C6.05384783,9.85390217 6.16638043,10.1268261 6.16638043,10.4479783 L6.16638043,10.8334348 C6.16638043,11.6845435 5.86536957,12.4112935 5.26334783,13.0133152 C4.66077174,13.615337 3.93457609,13.9163478 3.08365217,13.9163478 L2.31273913,13.9163478 C2.10338043,13.9163478 1.92284783,13.9928478 1.77058696,14.1451087 C1.61758696,14.2981087 1.54182609,14.4786413 1.54182609,14.6872609 L1.54182609,16.2289022 C1.54182609,16.4375217 1.61758696,16.6187935 1.77058696,16.7710543 C1.92284783,16.9233152 2.10338043,16.9998152 2.31273913,16.9998152 L3.08365217,16.9998152 C3.91794565,16.9998152 4.71565217,16.8373913 5.47418478,16.5119891 C6.23271739,16.1871413 6.88888043,15.7475435 7.44322826,15.1931957 C7.99683696,14.639587 8.43643478,13.9826848 8.76202174,13.2241522 C9.08686957,12.4654348 9.25003261,11.6686522 9.25003261,10.8334348 L9.25003261,2.35431522 C9.25003261,1.71201087 9.02478261,1.16634783 8.57502174,0.716586957 C8.12544565,0.267565217 7.57978261,0.0425 6.93729348,0.0425 Z" id="Fill"></path>
            <path d="M19.3661413,0.716586957 C18.9171196,0.267565217 18.3707174,0.0425 17.7282283,0.0425 L13.1036739,0.0425 C12.4613696,0.0425 11.9155217,0.267565217 11.4659457,0.716586957 C11.0161848,1.16634783 10.7916739,1.71275 10.7916739,2.35505435 L10.7916739,6.97979348 C10.7916739,7.62209783 11.0161848,8.16776087 11.4659457,8.61752174 C11.9155217,9.06709783 12.4613696,9.2916087 13.1036739,9.2916087 L15.8018696,9.2916087 C16.1230217,9.2916087 16.3957609,9.40432609 16.6202717,9.62883696 C16.8455217,9.85390217 16.9580543,10.1268261 16.9580543,10.4479783 L16.9580543,10.8334348 C16.9580543,11.6845435 16.6564891,12.4112935 16.0544674,13.0133152 C15.4524457,13.615337 14.7255109,13.9163478 13.874587,13.9163478 L13.1036739,13.9163478 C12.8950543,13.9163478 12.7139674,13.9928478 12.5615217,14.1451087 C12.4092609,14.2981087 12.3327609,14.4786413 12.3327609,14.6872609 L12.3327609,16.2289022 C12.3327609,16.4375217 12.4092609,16.6187935 12.5615217,16.7710543 C12.7139674,16.9233152 12.8950543,16.9998152 13.1036739,16.9998152 L13.874587,16.9998152 C14.7096196,16.9998152 15.506587,16.8373913 16.2651196,16.5119891 C17.023837,16.1871413 17.68,15.7475435 18.2343478,15.1931957 C18.7886957,14.639587 19.2282935,13.9826848 19.5529565,13.2241522 C19.8785435,12.4654348 20.0409674,11.6686522 20.0409674,10.8334348 L20.0409674,2.35431522 C20.0409674,1.71201087 19.8164565,1.16634783 19.3661413,0.716586957 Z" id="Fill"></path>
        </g>
    </g>
</svg>