<?xml version="1.0" encoding="UTF-8"?>
<svg width="11px" height="7px" viewBox="0 0 11 7" version="1.1" xmlns="http://www.w3.org/2000/svg" xmlns:xlink="http://www.w3.org/1999/xlink">
    <!-- Generator: Sketch 47.1 (45422) - http://www.bohemiancoding.com/sketch -->
    <title>icon_arrow_big_down_static</title>
    <desc>Created with Sketch.</desc>
    <defs></defs>
    <g id="Symbols" stroke="none" stroke-width="1" fill="none" fill-rule="evenodd">
        <g id="icon_arrow_big_down_static" fill="#546E7B">
            <path d="M5.71403445,3.98207402 L9.41096555,0.217925984 L9.41096555,0.217925984 C9.52706266,0.0997180219 9.71700444,0.0980068347 9.8352124,0.21410394 C9.83649787,0.215366451 9.83777194,0.216640518 9.83903445,0.217925984 L10.7935414,1.1897876 L10.7935414,1.1897876 C10.9081621,1.30649234 10.9081621,1.49350766 10.7935414,1.6102124 L5.71403445,6.78207402 L5.71403445,6.78207402 C5.59793734,6.90028198 5.40799556,6.90199317 5.2897876,6.78589606 C5.28850213,6.78463355 5.28722806,6.78335948 5.28596555,6.78207402 L0.206458612,1.6102124 L0.206458612,1.6102124 C0.0918378758,1.49350766 0.0918378758,1.30649234 0.206458612,1.1897876 L1.16096555,0.217925984 L1.16096555,0.217925984 C1.27706266,0.0997180219 1.46700444,0.0980068347 1.5852124,0.21410394 C1.58649787,0.215366451 1.58777194,0.216640518 1.58903445,0.217925984 L5.28596555,3.98207402 L5.28596555,3.98207402 C5.40206266,4.10028198 5.59200444,4.10199317 5.7102124,3.98589606 C5.71149787,3.98463355 5.71277194,3.98335948 5.71403445,3.98207402 Z"></path>
        </g>
    </g>
</svg>