<svg xmlns="http://www.w3.org/2000/svg" width="24" height="24" viewBox="0 0 24 24">
    <g fill="#FFF" fill-rule="evenodd">
        <path fill-rule="nonzero" d="M19.177 21.619l-.13.714a1 1 0 0 0 1.967.36l.69-3.784a1.062 1.062 0 0 0-1.242-1.241l-3.782.69a1 1 0 0 0 .358 1.967l.688-.125a10.004 10.004 0 0 1-9.79.931 9.995 9.995 0 0 1-5.592-11.72 1 1 0 0 0-1.932-.517c-1.715 6.402 2.084 12.982 8.485 14.697a11.962 11.962 0 0 0 10.28-1.972zM4.826 2.384l.13-.714a1 1 0 0 0-1.967-.36l-.69 3.784a1.062 1.062 0 0 0 1.242 1.241l3.782-.69a1 1 0 0 0-.358-1.967l-.688.125a10.004 10.004 0 0 1 9.79-.931 9.995 9.995 0 0 1 5.592 11.72 1 1 0 1 0 1.932.517C25.306 8.707 21.507 2.127 15.106.412a11.962 11.962 0 0 0-10.28 1.972z"/>
        <path d="M9.308 10.755c.195-.604.85-1.255 1.447-1.447l5.526-2.33c.604-.195.934.143.741.741l-2.33 5.526c-.195.604-.85 1.255-1.447 1.447l-5.526 2.33c-.604.195-.934-.143-.741-.741l2.33-5.526zm1.278 2.66a2 2 0 1 0 2.828-2.83 2 2 0 0 0-2.828 2.83z"/>
    </g>
</svg>
