<svg xmlns="http://www.w3.org/2000/svg" width="24" height="24" viewBox="0 0 24 24">
    <path fill="#FFF" fill-rule="nonzero" d="M10.612 2.859L10.2 5.737A2 2 0 0 1 7.476 7.31L4.777 6.227a1 1 0 0 0-1.238.428l-.398.69a1 1 0 0 0 .248 1.286l2.288 1.796a2 2 0 0 1 0 3.146L3.389 15.37a1 1 0 0 0-.248 1.286l.398.69a1 1 0 0 0 1.238.428l2.699-1.083a2 2 0 0 1 2.725 1.573l.41 2.878a1 1 0 0 0 .99.859h.797a1 1 0 0 0 .99-.859l.411-2.878a2 2 0 0 1 2.725-1.573l2.699 1.083a1 1 0 0 0 1.238-.428l.398-.69a1 1 0 0 0-.248-1.286l-2.288-1.796a2 2 0 0 1 0-3.146l2.288-1.796a1 1 0 0 0 .248-1.286l-.398-.69a1 1 0 0 0-1.238-.428L16.524 7.31A2 2 0 0 1 13.8 5.737l-.41-2.878a1 1 0 0 0-.99-.859h-.797a1 1 0 0 0-.99.859zM8.22 5.454l.534-3.737A2 2 0 0 1 10.735 0h2.53a2 2 0 0 1 1.98 1.717l.534 3.737 3.504-1.406a2 2 0 0 1 2.477.856l1.265 2.192a2 2 0 0 1-.497 2.573L19.558 12l2.97 2.33a2 2 0 0 1 .497 2.574l-1.265 2.192a2 2 0 0 1-2.477.856l-3.504-1.406-.534 3.737A2 2 0 0 1 13.265 24h-2.53a2 2 0 0 1-1.98-1.717l-.534-3.737-3.504 1.406a2 2 0 0 1-2.477-.856L.975 16.904a2 2 0 0 1 .497-2.573L4.442 12l-2.97-2.33a2 2 0 0 1-.497-2.574L2.24 4.904a2 2 0 0 1 2.477-.856l3.504 1.406zM12 16a4 4 0 1 0 0-8 4 4 0 0 0 0 8zm0-2a2 2 0 1 1 0-4 2 2 0 0 1 0 4z"/>
</svg>
