<?xml version="1.0" encoding="UTF-8"?>
<svg id="Layer_1" xmlns="http://www.w3.org/2000/svg" viewBox="0 0 250 250">
    <style>.st0 {
        fill: #00a5dd
        }

        .st1 {
        fill: #4b4b4b
        }

        .st2 {
        fill: #fff
        }

        .st3, .st4 {
        opacity: .2;
        fill: #00a5dd
        }

        .st4 {
        fill: #b3b3b3
        }

        .st5 {
        opacity: .1;
        fill: #00a5dd
        }

        .st6 {
        opacity: .2
        }

        .st7 {
        fill: #ccc
        }</style>
    <g class="airplane_wrapper">
        <path class="airplane_line_1 st0"
              d="M39.2 48.5c-.1-.1-.2-.3-.2-.5 0-.4.3-.7.7-.7h10.2c.4 0 .7.3.7.7 0 .4-.3.7-.7.7H39.7c-.2 0-.4-.1-.5-.2zm18.2.2h1.5c.4 0 .7-.3.7-.7 0-.4-.3-.7-.7-.7h-1.5c-.4 0-.7.3-.7.7 0 .2.1.4.2.5.1.1.3.2.5.2zm5.4 0h14.9c.4 0 .7-.3.7-.7 0-.4-.3-.7-.7-.7H62.8c-.4 0-.7.3-.7.7 0 .2.1.4.2.5.2.1.4.2.5.2zm22.4 0h1.5c.4 0 .7-.3.7-.7 0-.4-.3-.7-.7-.7h-1.5c-.4 0-.7.3-.7.7 0 .2.1.4.2.5s.3.2.5.2zm5.5 0h10.2c.4 0 .7-.3.7-.7 0-.4-.3-.7-.7-.7H90.7c-.4 0-.7.3-.7.7 0 .2.1.4.2.5.2.1.3.2.5.2z"></path>
        <path class="airplane_line_2 st0"
              d="M98.1 80.9c-.1-.1-.2-.3-.2-.5 0-.4.3-.7.7-.7h3.4c.4 0 .7.3.7.7 0 .4-.3.7-.7.7h-3.4c-.2 0-.4-.1-.5-.2zm6.4.2h2c.4 0 .7-.3.7-.7 0-.4-.3-.7-.7-.7h-2c-.4 0-.7.3-.7.7 0 .2.1.4.2.5.1.1.3.2.5.2zm6.9 0h3.4c.4 0 .7-.3.7-.7 0-.4-.3-.7-.7-.7h-3.4c-.4 0-.7.3-.7.7 0 .2.1.4.2.5.1.1.3.2.5.2z"></path>
        <path class="airplane_line_3 st0"
              d="M6.4 92.8c-.1-.1-.2-.3-.2-.5 0-.4.3-.7.7-.7h3.6c.4 0 .7.3.7.7 0 .4-.3.7-.7.7H6.9c-.2 0-.3-.1-.5-.2zm9.1 0c-.1-.1-.2-.3-.2-.5 0-.4.3-.7.7-.7h2c.4 0 .7.3.7.7 0 .4-.3.7-.7.7h-2c-.2 0-.4-.1-.5-.2zm12.3 0c-.1-.1-.2-.3-.2-.5 0-.4.3-.7.7-.7h20.4c.4 0 .7.3.7.7 0 .4-.3.7-.7.7H28.3c-.2 0-.4-.1-.5-.2z"></path>
        <path class="airplane_line_4 st0"
              d="M32.8 125.5c-.1-.1-.2-.3-.2-.5 0-.4.3-.7.7-.7h13.5c.4 0 .7.3.7.7 0 .4-.3.7-.7.7H33.3c-.2 0-.4-.1-.5-.2z"></path>
        <path class="airplane_line_5 st0"
              d="M45.1 157.8c-.1-.1-.2-.3-.2-.5 0-.4.3-.7.7-.7H49c.4 0 .7.3.7.7 0 .4-.3.7-.7.7h-3.4c-.2 0-.3 0-.5-.2zm-5.4.2h2.6c.4 0 .7-.3.7-.7 0-.4-.3-.7-.7-.7h-2.6c-.4 0-.7.3-.7.7 0 .2.1.4.2.5.2.1.3.2.5.2zm-10 0h3.4c.4 0 .7-.3.7-.7 0-.4-.3-.7-.7-.7h-3.4c-.4 0-.7.3-.7.7 0 .2.1.4.2.5.2.1.4.2.5.2z"></path>
        <path class="airplane_line_6 st0"
              d="M85.2 152c-.1-.1-.2-.3-.2-.5 0-.4.3-.7.7-.7h10.2c.4 0 .7.3.7.7 0 .4-.3.7-.7.7H85.7c-.2 0-.4-.1-.5-.2zm19.3.2h1.7c.4 0 .7-.3.7-.7 0-.4-.3-.7-.7-.7h-1.7c-.4 0-.7.3-.7.7 0 .2.1.4.2.5.1.1.3.2.5.2zm6.3 0H121c.4 0 .7-.3.7-.7 0-.4-.3-.7-.7-.7h-10.2c-.4 0-.7.3-.7.7 0 .2.1.4.2.5.1.1.3.2.5.2z"></path>
        <path class="airplane_line_7 st0"
              d="M99.5 179.1c-.1-.1-.2-.3-.2-.5 0-.4.3-.7.7-.7h11.3c.4 0 .7.3.7.7 0 .4-.3.7-.7.7H100c-.2 0-.4-.1-.5-.2z"></path>
        <path class="airplane_line_8 st0"
              d="M79.2 202.5c-.1-.1-.2-.3-.2-.5 0-.4.3-.7.7-.7h21.2c.4 0 .7.3.7.7 0 .4-.3.7-.7.7H79.7c-.2 0-.4-.1-.5-.2z"></path>
        <path class="st1" d="M134.2 141.3h7.2v2.4h-7.2z"></path>
        <circle class="st1" cx="134.2" cy="142.5" r="1.2"></circle>
        <path class="st1" d="M131.8 150.3h7.2v2.4h-7.2z"></path>
        <circle class="st1" cx="131.8" cy="151.5" r="1.2"></circle>
        <path class="st1" d="M125.6 168.4h7.2v2.4h-7.2z"></path>
        <circle class="st1" cx="125.6" cy="169.6" r="1.2"></circle>
        <path class="st1" d="M122.1 177.4h7.2v2.4h-7.2z"></path>
        <circle class="st1" cx="122.1" cy="178.6" r="1.2"></circle>
        <g>
            <path class="st2"
                  d="M137.3 175.5l14.6.1c.4 0 .8.2 1.1.4.3.3.4.7.4 1.1v7.4c0 .4-.1.8-.4 1.1-.3.3-.7.4-1.1.4l-14.6-.1v-10.4z"></path>
            <path class="st3" d="M135.9 187.3l15.9.1c.8 0 1.5-.3 2-.8s.8-1.3.8-2v-3.8h-18.8l.1 6.5z"></path>
            <path class="st1"
                  d="M135.9 187.3v-13.2l15.9.1c.8 0 1.5.3 2 .8s.8 1.3.8 2v7.4c0 .8-.3 1.5-.8 2s-1.3.8-2 .8l-15.9.1zm2.7-10.5v7.7l13.2.1h.1v-7.5-.1h-.1l-13.2-.2z"></path>
            <path class="st1"
                  d="M140.3 181.7c-.2-.2-.4-.6-.4-1 0-.8.6-1.4 1.4-1.4h7.8c.8 0 1.4.6 1.4 1.4 0 .8-.6 1.4-1.4 1.4h-7.8c-.4 0-.8-.2-1-.4z"></path>
        </g>
        <g>
            <path class="st2"
                  d="M161 150.3l13.3.1c.4 0 .8.2 1.1.4.3.3.4.7.4 1.1v7.4c0 .4-.1.8-.4 1.1-.3.3-.7.4-1.1.4l-13.2-.1v-10.4z"></path>
            <path class="st3" d="M159.6 162.1l14.6.1c.8 0 1.5-.3 2-.8s.8-1.3.8-2v-3.8h-17.5l.1 6.5z"></path>
            <path class="st1"
                  d="M159.6 162.1v-13.2l14.6.1c.8 0 1.5.3 2 .8s.8 1.3.8 2v7.4c0 .8-.3 1.5-.8 2s-1.3.8-2 .8l-14.6.1zm2.7-10.4v7.7l11.9.1h.1V152v-.1h-.1l-11.9-.2z"></path>
            <path class="st1"
                  d="M163.8 156.5c-.2-.2-.4-.6-.4-1 0-.8.6-1.4 1.4-1.4h6.7c.8 0 1.4.6 1.4 1.4 0 .8-.6 1.4-1.4 1.4h-6.7c-.4 0-.8-.1-1-.4z"></path>
        </g>
        <g>
            <path class="st2"
                  d="M177.5 137c-8.4 13.8-50.1 65.7-50.1 65.7h-11.3c5.8-11.8 23.2-54.5 23.2-66 .1-8.4 38.2.3 38.2.3z"></path>
            <path class="st3"
                  d="M177.5 137c-8.4 13.8-50.1 65.7-50.1 65.7h-11.3c5.8-11.8 23.2-54.5 23.2-66 .1-8.4 38.2.3 38.2.3z"></path>
            <path class="st3"
                  d="M167.8 150.9c1.4-1.8 2.6-3.6 3.8-5.2h-33.8c-.4 1.6-.9 3.4-1.5 5.2h31.5zM163.3 157c1.1-1.5 2.2-2.9 3.2-4.3h-30.7c-.4 1.4-.9 2.8-1.4 4.3h28.9zM176.5 138.7h-37.3c-.2 1.7-.6 3.8-1.2 6.1h34.2c1.8-2.4 3.2-4.4 4.3-6.1zM158.6 163.1c.9-1.1 1.7-2.3 2.6-3.4h-27.7c-.4 1.1-.8 2.3-1.2 3.4h26.3zM144.4 181.4c.2-.2.4-.5.5-.7h-19.3c-.1.2-.2.5-.3.7h19.1zM149.2 175.3c.4-.5.8-1.1 1.2-1.6h-22c-.2.5-.4 1.1-.6 1.6h21.4zM153.9 169.2c.6-.8 1.3-1.7 1.9-2.5H131c-.3.8-.6 1.7-.9 2.5h23.8z"></path>
            <path class="st1"
                  d="M115.2 203.7c-.1-.1-.1-.2-.2-.2-.2-.4-.3-.9-.1-1.3 5.9-12.1 23-54.3 23-65.5 0-1.2.5-2.3 1.5-3 6.4-5.1 35.1 1.3 38.3 2 .4.1.8.4 1 .8.2.4.1.9-.1 1.2-8.3 13.7-48.5 63.8-50.2 65.9-.3.3-.6.5-1.1.5H116c-.2 0-.5-.1-.8-.4zm60.1-65.8c-11.9-2.6-30.3-5.2-34.1-2.1-.4.3-.5.7-.5.9 0 11.4-16 50.9-22.4 64.7h8.5c4.2-5.2 38.9-48.7 48.5-63.5z"></path>
        </g>
        <g>
            <path class="st1"
                  d="M146.9 138.4c-.4 3.9-2.1 10.4-5 19h-6.2c2.9-8.7 4.5-15 4.9-19h6.3zm1.5-1.4h-9c-.1 4.3-2.4 12.5-5.5 21.7h9c3.1-9.2 5.4-17.4 5.5-21.7zM139.7 163.7c-2.9 8-5.8 15.5-8 20.7h-6.1c2.2-5.4 5.1-12.9 7.9-20.7h6.2zm1.9-1.3h-9c-2.8 7.9-6 16.2-9 23.5h9c3-7.3 6.2-15.7 9-23.5z"></path>
        </g>
        <g>
            <path class="st1" d="M134.2 106.3h7.2v2.4h-7.2z"></path>
            <circle class="st1" cx="134.2" cy="107.5" r="1.2"></circle>
            <path class="st1" d="M131.8 97.2h7.2v2.4h-7.2z"></path>
            <circle class="st1" cx="131.8" cy="98.5" r="1.2"></circle>
            <path class="st1" d="M125.6 79.2h7.2v2.4h-7.2z"></path>
            <circle class="st1" cx="125.6" cy="80.4" r="1.2"></circle>
            <path class="st1" d="M122.1 70.2h7.2v2.4h-7.2z"></path>
            <circle class="st1" cx="122.1" cy="71.4" r="1.2"></circle>
            <g>
                <path class="st2"
                      d="M161 99.7l13.3-.1c.4 0 .8-.2 1.1-.4.3-.3.4-.7.4-1.1v-7.4c0-.4-.1-.8-.4-1.1-.3-.3-.7-.4-1.1-.4H161v10.5z"></path>
                <path class="st3" d="M159.6 94.4v6.6l14.6-.1c.8 0 1.5-.3 2-.8s.8-1.3.8-2v-3.7h-17.4z"></path>
                <path class="st1"
                      d="M159.6 101V87.9l14.6-.1c.8 0 1.5.3 2 .8s.8 1.3.8 2V98c0 .8-.3 1.5-.8 2s-1.3.8-2 .8l-14.6.2zm2.7-10.4v7.7l11.9-.1h.1v-7.5-.1h-12z"></path>
                <path class="st1"
                      d="M163.8 95.4c-.2-.2-.4-.6-.4-1 0-.8.6-1.4 1.4-1.4h6.7c.8 0 1.4.6 1.4 1.4 0 .8-.6 1.4-1.4 1.4h-6.7c-.4 0-.8-.2-1-.4z"></path>
            </g>
            <g>
                <path class="st2"
                      d="M137.3 74.5l14.6-.1c.4 0 .8-.2 1.1-.4.3-.3.4-.7.4-1.1v-7.4c0-.4-.1-.8-.4-1.1-.3-.3-.7-.4-1.1-.4l-14.6.1v10.4z"></path>
                <path class="st3" d="M135.9 75.9l15.9-.1c.8 0 1.5-.3 2-.8s.8-1.3.8-2v-3.7h-18.8l.1 6.6z"></path>
                <path class="st1"
                      d="M135.9 75.9V62.7l15.9-.1c.8 0 1.5.3 2 .8s.8 1.3.8 2v7.4c0 .8-.3 1.5-.8 2s-1.2.8-2 .8l-15.9.3zm2.7-10.5v7.7l13.2-.1h.1v-7.5-.1H138.6z"></path>
                <path class="st1"
                      d="M140.3 70.2c-.2-.2-.4-.6-.4-1 0-.8.6-1.4 1.4-1.4h7.8c.8 0 1.4.6 1.4 1.4 0 .8-.6 1.4-1.4 1.4h-7.8c-.4 0-.8-.1-1-.4z"></path>
            </g>
            <g>
                <path class="st2"
                      d="M177.5 113c-8.4-13.8-50.1-65.7-50.1-65.7h-11.3c5.8 11.8 23.2 54.5 23.2 66 .1 8.4 38.2-.3 38.2-.3z"></path>
                <path class="st3"
                      d="M125.8 69.6c.1.2.2.5.3.7h19.6c-.2-.2-.4-.5-.5-.7h-19.4zM156.4 84c-.5-.7-1-1.4-1.6-2h-24.3c.3.7.5 1.4.7 2h25.2zM161.7 90.9l-2.1-2.7h-26.8l.9 2.7h28zM151.1 77.1c-.4-.5-.7-.9-1.1-1.4h-21.8c.2.5.3.9.5 1.4h22.4zM166.9 97.8c-.8-1.1-1.7-2.2-2.5-3.4H135c.4 1.2.7 2.3 1.1 3.4h30.8zM176.7 111.6c-.9-1.4-2-3-3.2-4.8h-35c.4 1.8.7 3.4.8 4.8h37.4zM171.9 104.7a84 84 0 0 0-3-4.1h-32.1c.4 1.4.8 2.8 1.1 4.1h34z"></path>
                <path class="st1"
                      d="M139.1 116c-.7-.7-1.1-1.7-1.1-2.7 0-11.1-17.1-53.3-23-65.4-.2-.4-.2-.9.1-1.3.2-.4.7-.6 1.2-.6h11.3c.4 0 .8.2 1.1.5 1.7 2.1 41.8 52.2 50.2 65.9.2.4.3.8.1 1.2-.2.4-.5.7-1 .8-3.3.7-32 7.1-38.3 2-.3-.2-.5-.3-.6-.4zm-20.8-67.4c6.4 13.8 22.4 53.2 22.4 64.7 0 .3.1.6.5.9 3.8 3 22.2.4 34.1-2.1-9.6-14.7-44.4-58.2-48.5-63.5h-8.5z"></path>
            </g>
            <g>
                <path class="st1"
                      d="M141.9 92.6c2.9 8.6 4.6 15.1 5 19h-6.3c-.4-4-2-10.4-4.9-19h6.2zm.9-1.4h-9c3.1 9.3 5.4 17.4 5.5 21.7h9c0-4.2-2.3-12.4-5.5-21.7zM131.7 65.5c2.2 5.3 5.1 12.8 8 20.7h-6.1c-2.8-7.8-5.7-15.3-7.9-20.7h6zm.9-1.3h-9c3 7.3 6.2 15.6 9 23.5h9c-2.8-7.9-6-16.3-9-23.5z"></path>
            </g>
        </g>
        <g>
            <path class="st2"
                  d="M214.3 113h-100C86 113 63 121.8 63 125c0 3.2 23 12 51.3 12h100c7.3 0 27.8-6.9 27.8-12 0-5.2-20.4-12-27.8-12z"></path>
            <path class="st4" d="M106 125H63c0 2.9 18.6 10.3 43 11.8V125z"></path>
            <path class="st1"
                  d="M62.6 127c-.6-.6-1-1.3-1-2 0-3.6 11.2-7.2 16-8.5 6.5-1.8 19.8-4.9 36.7-4.9h100c3.8 0 10.9 1.7 17.2 4.2 8 3.1 12 6.2 12 9.2 0 3-4 6.1-12 9.2-6.3 2.5-13.3 4.2-17.2 4.2h-100c-16.8 0-30.2-3.1-36.7-4.9-3.9-1.1-12.1-3.6-15-6.5zm1.7-1.8zm.1-.2c2.1 2.6 22.2 10.7 49.9 10.7h100c3.5 0 10.3-1.7 16.2-4 8.1-3.2 10.3-5.8 10.3-6.7 0-.9-2.2-3.5-10.3-6.7-5.9-2.3-12.7-4-16.2-4h-100c-27.7 0-47.8 8.1-49.9 10.7zm-.1-.2"></path>
        </g>
        <path class="st5"
              d="M240.8 125H106c0 1.1-.5 3.1-3.7 3.9-1.7.4-4.5.6-8.9.6-5.8 0-13.7-.2-20.6-.4 8.2 1 14.5 2.6 16.7 4.4 7.2 1.3 15.5 2.2 24.8 2.2h100c3.5 0 10.3-1.7 16.2-4 8.1-3.2 10.3-5.8 10.3-6.7z"></path>
        <path class="st1"
              d="M229.8 133.4c2.4-2.5 3.7-5.4 3.7-8.4 0-3.2-1.4-6.1-3.6-8.4-.6-.2-1.1-.4-1.7-.6 2.7 2.3 4.6 5.5 4.6 9 0 3.3-1.7 6.5-4.7 9 .5-.2 1.1-.4 1.7-.6z"></path>
        <g>
            <path class="st0"
                  d="M218.5 125.7c-.1 1-.4 1.9-.9 2.8l2.5 1.4c1.2-1.2 1.9-2.6 2.1-4.2h-3.7zM218.5 124.2h3.7c-.2-1.6-1-3.1-2.1-4.2l-2.5 1.4c.4.9.8 1.8.9 2.8zM216.7 120.2l2.1-1.2c-1.6-1.1-3.7-1.8-6-1.8h-1.6c2.2.4 4.2 1.5 5.5 3zM216.7 129.8c-1.3 1.5-3.2 2.6-5.5 3h1.6c2.3 0 4.4-.7 6-1.8l-2.1-1.2z"></path>
        </g>
        <g>
            <path class="st2"
                  d="M67.6 128.5l-9.3 29.2H67s15-16.9 16.7-18.8c1.7-1.9 5-4.1 6.6-4 .4-2.7-9.6-5.4-22.7-6.4z"></path>
            <g class="st6">
                <path class="st0"
                      d="M67.6 128.5l-9.3 29.2H67s15-16.9 16.7-18.8c1.7-1.9 5-4.1 6.6-4 .4-2.7-9.6-5.4-22.7-6.4z"></path>
            </g>
            <path class="st3"
                  d="M65.5 135.2h23.7c.4-.1.8-.2 1.2-.2.2-1.4-2.2-2.7-6.3-3.9H66.9l-1.4 4.1zM83.3 139.4c.2-.2.3-.4.4-.5.8-.9 2.1-2 3.3-2.7H65.1l-1 3.2h19.2zM79.5 143.7c.8-.9 1.5-1.7 2.1-2.4H63.5l-.8 2.4h16.8zM75.7 148c.5-.5.9-1 1.4-1.5H62l-.5 1.5h14.2zM71.9 152.3c.2-.2.4-.5.6-.7H60.3l-.2.7h11.8z"></path>
            <path class="st1"
                  d="M85.1 134.3c-1.4 1-2.7 2.1-3.4 2.9-1.5 1.6-12.7 14.3-15.9 17.9H62l7.5-23.6c7.3.6 12.5 1.7 15.6 2.8zm4.6-.6c-2.3-2.3-11.1-4.3-22.1-5.2l-9.3 29.2H67s15-16.9 16.7-18.8c1.7-1.9 5-4.1 6.6-4 .1-.4-.1-.8-.6-1.2z"></path>
            <path class="st1"
                  d="M71.4 134.6l-7.8 15.1h-1.3l5.3-16.5 3.8 1.4zm1.9-.7l-6.6-2.5-6.3 19.6h4l8.9-17.1z"></path>
        </g>
        <g>
            <path class="st2"
                  d="M67.6 121.5l-9.3-29.2H67s15 16.9 16.7 18.8c1.7 1.9 5 4.1 6.6 4 .4 2.7-9.6 5.4-22.7 6.4z"></path>
            <path class="st3"
                  d="M60 97.7l.2.7h12.2c-.2-.2-.4-.5-.6-.7H60zM76.9 103.5c-.4-.4-.8-.9-1.2-1.4H61.4l.4 1.4h15.1zM81.4 108.5c-.5-.6-1.2-1.3-1.8-2H62.8l.7 2h17.9zM86.6 113.5c-1.1-.7-2.2-1.6-2.9-2.5l-.2-.2H64.2l.9 2.7h21.5zM85.2 118.6c3.3-1 5.2-2.2 5.1-3.4H65.6l1.1 3.4h18.5z"></path>
            <path class="st1"
                  d="M65.8 95c3.2 3.6 14.4 16.2 15.9 17.9.2.2.3.4.5.5.7.7 1.7 1.5 2.9 2.3-2.9 1-7.9 2.2-15.5 2.9L62 95h3.8zm24.5 20c-1.5.1-4.4-1.8-6.2-3.6l-.4-.4C82 109.2 67 92.3 67 92.3h-8.7l9.3 29.2c13.1-1 23.1-3.7 22.7-6.5z"></path>
            <path class="st1"
                  d="M63.6 100.3l7.8 15.1-3.8 1.5-5.3-16.5 1.3-.1zm.8-1.4h-4l6.3 19.7 6.6-2.5-8.9-17.2z"></path>
        </g>
        <g>
            <path class="st0"
                  d="M145.8 135c-.1-.1-.1-.2-.2-.3-.1-.1-.1-.2-.2-.3 0-.1-.1-.2-.1-.3v-.3-.3c0-.1.1-.2.1-.3 0-.1.1-.2.2-.3.1-.1.1-.2.2-.3.1-.1.2-.1.3-.2.1-.1.2-.1.3-.2.1 0 .2-.1.3-.1h.6c.1 0 .2.1.3.1.1 0 .2.1.3.2.2.1.3.3.5.5.1.1.1.2.2.3 0 .1.1.2.1.3v.3c0 .4-.2.9-.5 1.2-.3.3-.8.5-1.2.5h-.3c-.1 0-.2-.1-.3-.1-.1 0-.2-.1-.3-.2-.1-.1-.2-.1-.3-.2zm-28.8 0c.3.3.7.5 1.2.5.9 0 1.7-.8 1.7-1.7 0-.9-.8-1.7-1.7-1.7-.9 0-1.7.8-1.7 1.7 0 .5.2.9.5 1.2zm4.8 0c.3.3.7.5 1.2.5.9 0 1.7-.8 1.7-1.7 0-.9-.8-1.7-1.7-1.7-.9 0-1.7.8-1.7 1.7 0 .5.2.9.5 1.2zm4.8 0c.3.3.7.5 1.2.5.9 0 1.7-.8 1.7-1.7 0-.9-.8-1.7-1.7-1.7-.9 0-1.7.8-1.7 1.7 0 .5.2.9.5 1.2zm4.8 0c.3.3.7.5 1.2.5.9 0 1.7-.8 1.7-1.7 0-.9-.8-1.7-1.7-1.7-.9 0-1.7.8-1.7 1.7 0 .5.2.9.5 1.2zm4.8 0c.3.3.7.5 1.2.5.9 0 1.7-.8 1.7-1.7 0-.9-.8-1.7-1.7-1.7-.9 0-1.7.8-1.7 1.7 0 .5.2.9.5 1.2zm4.8 0c.3.3.7.5 1.2.5.9 0 1.7-.8 1.7-1.7 0-.9-.8-1.7-1.7-1.7-.9 0-1.7.8-1.7 1.7 0 .5.2.9.5 1.2zm-27.6.5c.4 0 .9-.2 1.2-.5.3-.3.5-.8.5-1.2 0-.9-.8-1.7-1.7-1.7-.4 0-.9.2-1.2.5-.3.3-.5.8-.5 1.2 0 .4.2.9.5 1.2.4.3.8.5 1.2.5zM195.5 135c-.1-.1-.1-.2-.2-.3-.1-.1-.1-.2-.2-.3 0-.1-.1-.2-.1-.3v-.3c0-.4.2-.9.5-1.2.1-.1.2-.1.3-.2.1-.1.2-.1.3-.2.1 0 .2-.1.3-.1h.3c.6 0 1.1.3 1.4.8.1.1.1.2.2.3 0 .1.1.2.1.3v.6c0 .1 0 .2-.1.3 0 .1-.1.2-.2.3-.1.1-.1.2-.2.3-.3.3-.8.5-1.2.5h-.3c-.1 0-.2-.1-.3-.1-.1 0-.2-.1-.3-.2-.2-.1-.3-.1-.3-.2zm-28.8 0c.3.3.7.5 1.2.5.9 0 1.7-.8 1.7-1.7 0-.9-.8-1.7-1.7-1.7-.9 0-1.7.8-1.7 1.7 0 .5.2.9.5 1.2zm4.8 0c.3.3.7.5 1.2.5.9 0 1.7-.8 1.7-1.7 0-.9-.8-1.7-1.7-1.7-.9 0-1.7.8-1.7 1.7 0 .5.2.9.5 1.2zm4.8 0c.3.3.7.5 1.2.5.9 0 1.7-.8 1.7-1.7 0-.9-.8-1.7-1.7-1.7-.9 0-1.7.8-1.7 1.7 0 .5.2.9.5 1.2zm4.8 0c.3.3.7.5 1.2.5.9 0 1.7-.8 1.7-1.7 0-.9-.8-1.7-1.7-1.7-.9 0-1.7.8-1.7 1.7 0 .5.2.9.5 1.2zm4.8 0c.3.3.7.5 1.2.5.9 0 1.7-.8 1.7-1.7 0-.9-.8-1.7-1.7-1.7-.9 0-1.7.8-1.7 1.7 0 .5.1.9.5 1.2zm4.8 0c.3.3.7.5 1.2.5.9 0 1.7-.8 1.7-1.7 0-.9-.8-1.7-1.7-1.7-.9 0-1.7.8-1.7 1.7 0 .5.1.9.5 1.2zm-27.6.5h.3c.1 0 .2-.1.3-.1.1 0 .2-.1.3-.2.1-.1.2-.1.3-.2.1-.1.1-.2.2-.3.1-.1.1-.2.2-.3 0-.1.1-.2.1-.3v-.3-.3c0-.1-.1-.2-.1-.3 0-.1-.1-.2-.2-.3-.1-.2-.3-.3-.5-.5-.1-.1-.2-.1-.3-.2-.1 0-.2-.1-.3-.1h-.3c-.5 0-.9.2-1.2.5-.3.3-.5.8-.5 1.2 0 .4.2.9.5 1.2.3.3.7.5 1.2.5zM145.8 117.4c-.1-.1-.1-.2-.2-.3-.1-.1-.1-.2-.2-.3 0-.1-.1-.2-.1-.3v-.3c0-.4.2-.9.5-1.2.1-.1.2-.1.3-.2.1-.1.2-.1.3-.2.1 0 .2-.1.3-.1h.6c.1 0 .2.1.3.1.1 0 .2.1.3.2.5.3.8.9.8 1.4v.3c0 .1 0 .2-.1.3 0 .1-.1.2-.2.3-.1.1-.1.2-.2.3-.3.3-.8.5-1.2.5-.4 0-.8-.2-1.2-.5zm-28.7 0c.3.3.7.5 1.2.5.9 0 1.7-.8 1.7-1.7 0-.9-.8-1.7-1.7-1.7-.9 0-1.7.8-1.7 1.7 0 .4.1.9.5 1.2zm4.8 0c.3.3.7.5 1.2.5.9 0 1.7-.8 1.7-1.7 0-.9-.8-1.7-1.7-1.7-.9 0-1.7.8-1.7 1.7 0 .4.1.9.5 1.2zm4.7 0c.3.3.7.5 1.2.5.9 0 1.7-.8 1.7-1.7 0-.9-.8-1.7-1.7-1.7-.9 0-1.7.8-1.7 1.7.1.4.2.9.5 1.2zm4.8 0c.3.3.7.5 1.2.5.9 0 1.7-.8 1.7-1.7 0-.9-.8-1.7-1.7-1.7-.9 0-1.7.8-1.7 1.7 0 .4.2.9.5 1.2zm4.8 0c.3.3.7.5 1.2.5.9 0 1.7-.8 1.7-1.7 0-.9-.8-1.7-1.7-1.7-.9 0-1.7.8-1.7 1.7 0 .4.2.9.5 1.2zm4.8 0c.3.3.7.5 1.2.5.9 0 1.7-.8 1.7-1.7 0-.9-.8-1.7-1.7-1.7-.9 0-1.7.8-1.7 1.7 0 .4.2.9.5 1.2zm-27.5.5c.4 0 .9-.2 1.2-.5.1-.1.2-.2.2-.3.1-.1.1-.2.2-.3 0-.1.1-.2.1-.3v-.3c0-.9-.8-1.7-1.7-1.7h-.3c-.1 0-.2.1-.3.1-.1 0-.2.1-.3.2-.1.1-.2.1-.3.2-.3.3-.5.8-.5 1.2 0 .4.2.9.5 1.2.3.3.7.5 1.2.5zM195.5 117.4c-.1-.1-.1-.2-.2-.3-.1-.1-.1-.2-.2-.3 0-.1-.1-.2-.1-.3v-.3-.3c0-.1.1-.2.1-.3 0-.1.1-.2.2-.3.1-.1.1-.2.2-.3.1-.1.2-.1.3-.2.1-.1.2-.1.3-.2.1 0 .2-.1.3-.1h.6c.1 0 .2.1.3.1.1 0 .2.1.3.2.2.1.3.3.5.5.1.1.1.2.2.3 0 .1.1.2.1.3v.6c0 .1-.1.2-.1.3 0 .1-.1.2-.2.3-.1.1-.1.2-.2.3-.1.1-.2.1-.3.2-.1.1-.2.1-.3.2-.1 0-.2.1-.3.1h-.6c-.1 0-.2-.1-.3-.1-.1 0-.2-.1-.3-.2-.2-.1-.3-.2-.3-.2zm-28.8 0c.3.3.7.5 1.2.5.9 0 1.7-.8 1.7-1.7 0-.9-.8-1.7-1.7-1.7-.9 0-1.7.8-1.7 1.7 0 .4.2.9.5 1.2zm4.8 0c.3.3.7.5 1.2.5.9 0 1.7-.8 1.7-1.7 0-.9-.8-1.7-1.7-1.7-.9 0-1.7.8-1.7 1.7 0 .4.2.9.5 1.2zm4.8 0c.3.3.7.5 1.2.5.9 0 1.7-.8 1.7-1.7 0-.9-.8-1.7-1.7-1.7-.9 0-1.7.8-1.7 1.7 0 .4.2.9.5 1.2zm4.8 0c.3.3.7.5 1.2.5.9 0 1.7-.8 1.7-1.7 0-.9-.8-1.7-1.7-1.7-.9 0-1.7.8-1.7 1.7 0 .4.2.9.5 1.2zm4.8 0c.3.3.7.5 1.2.5.9 0 1.7-.8 1.7-1.7 0-.9-.8-1.7-1.7-1.7-.9 0-1.7.8-1.7 1.7 0 .4.2.9.5 1.2zm4.8 0c.3.3.7.5 1.2.5.9 0 1.7-.8 1.7-1.7 0-.9-.8-1.7-1.7-1.7-.9 0-1.7.8-1.7 1.7 0 .4.2.9.5 1.2zm-28.6.2c.1.1.2.1.3.2.1 0 .2.1.3.1h.6c.1 0 .2-.1.3-.1.1 0 .2-.1.3-.2.1-.1.2-.1.3-.2.1-.1.1-.2.2-.3.1-.1.1-.2.2-.3 0-.1.1-.2.1-.3v-.3-.3c0-.1-.1-.2-.1-.3 0-.1-.1-.2-.2-.3-.1-.2-.3-.3-.5-.5-.1-.1-.2-.1-.3-.2-.1 0-.2-.1-.3-.1h-.3c-.4 0-.9.2-1.2.5-.1.1-.1.2-.2.3-.1.1-.1.2-.2.3 0 .1-.1.2-.1.3v.3c0 .4.2.9.5 1.2.2 0 .2.1.3.2z"></path>
        </g>
        <g>
            <path class="st2"
                  d="M103.3 125c0 .9-1 1.7-9.9 1.7-13 0-37-.8-37-1.7 0-.9 24-1.7 37-1.7 8.9 0 9.9.8 9.9 1.7z"></path>
            <path class="st7" d="M56.4 125c0 .9 24 1.7 37 1.7 8.9 0 9.9-.8 9.9-1.7H56.4z"></path>
            <path class="st1"
                  d="M103.1 124.4c.2.2.2.4.2.6 0 .9-1 1.7-9.9 1.7-12.7 0-36-.7-37-1.6v-.1c0-.9 24-1.7 37-1.7 6.9 0 9 .5 9.7 1.1zm1.9-1.9c-1.3-1.3-3.3-1.9-11.6-1.9-6.7 0-15.9.2-23.5.5-4.1.2-7.4.3-9.8.5-1.4.1-2.4.2-3.1.3-2.2.4-3.3 1.4-3.3 3 0 .7.3 1.4.8 2 .9.9 1.4 1.4 15.9 2 7.4.3 16.5.5 23 .5 4.4 0 7.2-.2 8.9-.6 3.2-.7 3.7-2.7 3.7-3.9 0-1.1-.5-2-1-2.4z"></path>
        </g>
    </g>
</svg>