<?xml version="1.0" encoding="UTF-8"?>
<svg width="14px" height="14px" viewBox="0 0 14 14" version="1.1" xmlns="http://www.w3.org/2000/svg" xmlns:xlink="http://www.w3.org/1999/xlink">
    <!-- Generator: Sketch 47.1 (45422) - http://www.bohemiancoding.com/sketch -->
    <title>Icon/Light theme/Close 14</title>
    <desc>Created with Sketch.</desc>
    <defs></defs>
    <g id="1024x768" stroke="none" stroke-width="1" fill="none" fill-rule="evenodd" opacity="0.54">
        <g id="1024x768-settings-currency" transform="translate(-976.000000, -88.000000)" fill="#39424C">
            <g id="pop-up" transform="translate(696.000000, 72.000000)">
                <g id="Icon/Light-theme/Close-14" transform="translate(280.000000, 16.000000)">
                    <path d="M13.7284586,0.344440953 L13.655559,0.271541448 L13.655559,0.271541448 C13.2650348,-0.118982843 12.6318698,-0.118982843 12.2413455,0.271541448 L7.70710678,4.80578015 L7.70710678,4.80578015 C7.31658249,5.19630444 6.68341751,5.19630444 6.29289322,4.80578015 L1.75865451,0.271541448 L1.75865451,0.271541448 C1.36813022,-0.118982843 0.734965244,-0.118982843 0.344440953,0.271541448 L0.271541448,0.344440953 L0.271541448,0.344440953 C-0.118982843,0.734965244 -0.118982843,1.36813022 0.271541448,1.75865451 L4.80578015,6.29289322 L4.80578015,6.29289322 C5.19630444,6.68341751 5.19630444,7.31658249 4.80578015,7.70710678 L0.271541448,12.2413455 L0.271541448,12.2413455 C-0.118982843,12.6318698 -0.118982843,13.2650348 0.271541448,13.655559 L0.344440953,13.7284586 L0.344440953,13.7284586 C0.734965244,14.1189828 1.36813022,14.1189828 1.75865451,13.7284586 L6.29289322,9.19421985 L6.29289322,9.19421985 C6.68341751,8.80369556 7.31658249,8.80369556 7.70710678,9.19421985 L12.2413455,13.7284586 L12.2413455,13.7284586 C12.6318698,14.1189828 13.2650348,14.1189828 13.655559,13.7284586 L13.7284586,13.655559 L13.7284586,13.655559 C14.1189828,13.2650348 14.1189828,12.6318698 13.7284586,12.2413455 L9.19421985,7.70710678 L9.19421985,7.70710678 C8.80369556,7.31658249 8.80369556,6.68341751 9.19421985,6.29289322 L13.7284586,1.75865451 L13.7284586,1.75865451 C14.1189828,1.36813022 14.1189828,0.734965244 13.7284586,0.344440953 Z" id="Shape"></path>
                </g>
            </g>
        </g>
    </g>
</svg>