<?xml version="1.0" encoding="UTF-8"?>
<svg width="614px" height="120px" viewBox="0 0 614 120" version="1.1" xmlns="http://www.w3.org/2000/svg" xmlns:xlink="http://www.w3.org/1999/xlink">
    <!-- Generator: Sketch Beta 43.2 (39068) - http://www.bohemiancoding.com/sketch -->
    <title>logo_aviasales</title>
    <desc>Created with Sketch Beta.</desc>
    <defs></defs>
    <g id="Symbols" stroke="none" stroke-width="1" fill="none" fill-rule="evenodd">
        <g id="logo_aviasales" fill="#FFFFFF">
            <path d="M182.9922,81.0449 C187.9762,81.0449 191.9082,79.6199 194.7872,76.7699 C197.6662,73.9199 199.1052,69.9589 199.1052,64.8889 L199.1052,60.2909 L190.9412,60.6349 C184.3812,60.9499 179.7052,61.9739 176.9122,63.7069 C174.1192,65.4409 172.7222,68.1399 172.7222,71.8069 C172.7222,74.7289 173.6172,76.9989 175.4082,78.6169 C177.1982,80.2359 179.7262,81.0449 182.9922,81.0449 Z M200.1792,84.0529 L199.1052,76.6619 L198.7622,76.6619 C196.4122,79.6699 193.9992,81.7969 191.5212,83.0429 C189.0432,84.2889 186.1142,84.9119 182.7342,84.9119 C178.1512,84.9119 174.5842,83.7379 172.0352,81.3889 C169.4852,79.0399 168.2112,75.7889 168.2112,71.6349 C168.2112,67.0799 170.1082,63.5429 173.9042,61.0219 C177.7002,58.5009 183.1922,57.1689 190.3832,57.0249 L199.2772,56.7679 L199.2772,53.6739 C199.2772,49.2339 198.3752,45.8819 196.5702,43.6189 C194.7652,41.3569 191.8582,40.2249 187.8472,40.2249 C183.5222,40.2249 179.0392,41.4279 174.3982,43.8339 L172.8082,40.1389 C177.9362,37.7319 183.0062,36.5289 188.0192,36.5289 C193.1472,36.5289 196.9782,37.8609 199.5132,40.5249 C202.0492,43.1899 203.3162,47.3429 203.3162,52.9859 L203.3162,84.0529 L200.1792,84.0529 Z" id="Fill-1"></path>
            <path d="M228.668,84.0527 L210.621,37.3457 L215.004,37.3457 L227.078,69.0997 C228.682,73.1677 229.885,76.7197 230.688,79.7557 L230.945,79.7557 C232.12,75.8607 233.323,72.2797 234.555,69.0137 L246.629,37.3457 L251.012,37.3457 L232.965,84.0527 L228.668,84.0527 Z" id="Fill-3"></path>
            <path d="M258.832,84.053 L263.086,84.053 L263.086,37.346 L258.832,37.346 L258.832,84.053 Z M258.23,24.369 C258.23,21.619 259.133,20.244 260.937,20.244 C261.825,20.244 262.52,20.603 263.021,21.318 C263.522,22.035 263.773,23.052 263.773,24.369 C263.773,25.658 263.522,26.675 263.021,27.42 C262.52,28.165 261.825,28.537 260.937,28.537 C259.133,28.537 258.23,27.148 258.23,24.369 L258.23,24.369 Z" id="Fill-5"></path>
            <path d="M289.8984,81.0449 C294.8824,81.0449 298.8144,79.6199 301.6934,76.7699 C304.5724,73.9199 306.0114,69.9589 306.0114,64.8889 L306.0114,60.2909 L297.8474,60.6349 C291.2874,60.9499 286.6114,61.9739 283.8184,63.7069 C281.0254,65.4409 279.6284,68.1399 279.6284,71.8069 C279.6284,74.7289 280.5234,76.9989 282.3144,78.6169 C284.1044,80.2359 286.6324,81.0449 289.8984,81.0449 L289.8984,81.0449 Z M307.0854,84.0529 L306.0114,76.6619 L305.6684,76.6619 C303.3184,79.6699 300.9054,81.7969 298.4274,83.0429 C295.9494,84.2889 293.0204,84.9119 289.6404,84.9119 C285.0574,84.9119 281.4904,83.7379 278.9414,81.3889 C276.3914,79.0399 275.1174,75.7889 275.1174,71.6349 C275.1174,67.0799 277.0144,63.5429 280.8104,61.0219 C284.6064,58.5009 290.0984,57.1689 297.2894,57.0249 L306.1834,56.7679 L306.1834,53.6739 C306.1834,49.2339 305.2814,45.8819 303.4764,43.6189 C301.6714,41.3569 298.7644,40.2249 294.7534,40.2249 C290.4284,40.2249 285.9454,41.4279 281.3044,43.8339 L279.7144,40.1389 C284.8424,37.7319 289.9124,36.5289 294.9254,36.5289 C300.0534,36.5289 303.8844,37.8609 306.4194,40.5249 C308.9554,43.1899 310.2224,47.3429 310.2224,52.9859 L310.2224,84.0529 L307.0854,84.0529 Z" id="Fill-7"></path>
            <path d="M354.3086,71.8926 C354.3086,76.0756 352.7186,79.2906 349.5386,81.5386 C346.3596,83.7886 341.8476,84.9126 336.0036,84.9126 C329.7586,84.9126 324.8026,83.9526 321.1366,82.0336 L321.1366,77.4356 C325.8336,79.7846 330.7896,80.9586 336.0036,80.9586 C340.6156,80.9586 344.1176,80.1926 346.5096,78.6606 C348.9016,77.1276 350.0976,75.0866 350.0976,72.5376 C350.0976,70.1886 349.1446,68.2116 347.2406,66.6076 C345.3346,65.0036 342.2046,63.4276 337.8516,61.8806 C333.1816,60.1906 329.9026,58.7376 328.0116,57.5196 C326.1216,56.3026 324.6956,54.9276 323.7366,53.3946 C322.7766,51.8626 322.2966,49.9936 322.2966,47.7876 C322.2966,44.2926 323.7646,41.5286 326.7016,39.4946 C329.6366,37.4606 333.7406,36.4436 339.0116,36.4436 C344.0526,36.4436 348.8366,37.3886 353.3636,39.2796 L351.7736,43.1466 C347.1896,41.2556 342.9356,40.3106 339.0116,40.3106 C335.2016,40.3106 332.1796,40.9406 329.9456,42.2016 C327.7106,43.4616 326.5936,45.2086 326.5936,47.4436 C326.5936,49.8786 327.4596,51.8266 329.1936,53.2876 C330.9256,54.7476 334.3136,56.3806 339.3556,58.1856 C343.5666,59.7046 346.6306,61.0716 348.5506,62.2886 C350.4696,63.5066 351.9096,64.8886 352.8696,66.4356 C353.8286,67.9826 354.3086,69.8016 354.3086,71.8926" id="Fill-8"></path>
            <path d="M377.5117,81.0449 C382.4957,81.0449 386.4277,79.6199 389.3067,76.7699 C392.1857,73.9199 393.6247,69.9589 393.6247,64.8889 L393.6247,60.2909 L385.4607,60.6349 C378.9007,60.9499 374.2247,61.9739 371.4317,63.7069 C368.6387,65.4409 367.2417,68.1399 367.2417,71.8069 C367.2417,74.7289 368.1367,76.9989 369.9277,78.6169 C371.7177,80.2359 374.2457,81.0449 377.5117,81.0449 L377.5117,81.0449 Z M394.6987,84.0529 L393.6247,76.6619 L393.2817,76.6619 C390.9317,79.6699 388.5187,81.7969 386.0407,83.0429 C383.5627,84.2889 380.6337,84.9119 377.2537,84.9119 C372.6697,84.9119 369.1037,83.7379 366.5547,81.3889 C364.0047,79.0399 362.7307,75.7889 362.7307,71.6349 C362.7307,67.0799 364.6277,63.5429 368.4237,61.0219 C372.2187,58.5009 377.7117,57.1689 384.9027,57.0249 L393.7967,56.7679 L393.7967,53.6739 C393.7967,49.2339 392.8947,45.8819 391.0897,43.6189 C389.2847,41.3569 386.3767,40.2249 382.3667,40.2249 C378.0407,40.2249 373.5587,41.4279 368.9177,43.8339 L367.3277,40.1389 C372.4547,37.7319 377.5257,36.5289 382.5387,36.5289 C387.6657,36.5289 391.4977,37.8609 394.0327,40.5249 C396.5687,43.1899 397.8357,47.3429 397.8357,52.9859 L397.8357,84.0529 L394.6987,84.0529 Z" id="Fill-9"></path>
            <polygon id="Fill-10" points="412.961 84.053 417.215 84.053 417.215 17.194 412.961 17.194"></polygon>
            <path d="M450.4727,40.2246 C445.9747,40.2246 442.3657,41.7066 439.6447,44.6716 C436.9227,47.6366 435.3327,51.9126 434.8747,57.4976 L463.7497,57.4976 C463.7497,52.0836 462.5757,47.8516 460.2267,44.8006 C457.8767,41.7496 454.6257,40.2246 450.4727,40.2246 M451.7187,84.9126 C444.9297,84.9126 439.6367,82.8216 435.8417,78.6386 C432.0457,74.4566 430.1487,68.5986 430.1487,61.0646 C430.1487,53.6166 431.9817,47.6516 435.6487,43.1676 C439.3147,38.6846 444.2557,36.4436 450.4727,36.4436 C455.9727,36.4436 460.3127,38.3626 463.4927,42.2016 C466.6717,46.0396 468.2617,51.2536 468.2617,57.8416 L468.2617,61.2796 L434.6177,61.2796 C434.6737,67.6966 436.1707,72.5946 439.1077,75.9746 C442.0427,79.3546 446.2467,81.0446 451.7187,81.0446 C454.3827,81.0446 456.7247,80.8586 458.7437,80.4866 C460.7637,80.1146 463.3207,79.3116 466.4137,78.0796 L466.4137,81.9476 C463.7787,83.0936 461.3437,83.8736 459.1097,84.2886 C456.8747,84.7036 454.4107,84.9126 451.7187,84.9126" id="Fill-11"></path>
            <path d="M510.1133,71.8926 C510.1133,76.0756 508.5233,79.2906 505.3433,81.5386 C502.1643,83.7886 497.6523,84.9126 491.8083,84.9126 C485.5633,84.9126 480.6073,83.9526 476.9413,82.0336 L476.9413,77.4356 C481.6383,79.7846 486.5943,80.9586 491.8083,80.9586 C496.4203,80.9586 499.9223,80.1926 502.3143,78.6606 C504.7063,77.1276 505.9023,75.0866 505.9023,72.5376 C505.9023,70.1886 504.9493,68.2116 503.0453,66.6076 C501.1393,65.0036 498.0093,63.4276 493.6563,61.8806 C488.9863,60.1906 485.7073,58.7376 483.8163,57.5196 C481.9263,56.3026 480.5003,54.9276 479.5413,53.3946 C478.5813,51.8626 478.1013,49.9936 478.1013,47.7876 C478.1013,44.2926 479.5693,41.5286 482.5063,39.4946 C485.4413,37.4606 489.5453,36.4436 494.8163,36.4436 C499.8573,36.4436 504.6413,37.3886 509.1683,39.2796 L507.5783,43.1466 C502.9943,41.2556 498.7403,40.3106 494.8163,40.3106 C491.0063,40.3106 487.9843,40.9406 485.7503,42.2016 C483.5153,43.4616 482.3983,45.2086 482.3983,47.4436 C482.3983,49.8786 483.2643,51.8266 484.9983,53.2876 C486.7303,54.7476 490.1183,56.3806 495.1603,58.1856 C499.3713,59.7046 502.4353,61.0716 504.3553,62.2886 C506.2743,63.5066 507.7143,64.8886 508.6743,66.4356 C509.6333,67.9826 510.1133,69.8016 510.1133,71.8926" id="Fill-12"></path>
            <path d="M521.2852,80.7012 C521.2852,77.8942 522.4312,76.4902 524.7232,76.4902 C527.0712,76.4902 528.2462,77.8942 528.2462,80.7012 C528.2462,83.5092 527.0712,84.9122 524.7232,84.9122 C522.4312,84.9122 521.2852,83.5092 521.2852,80.7012" id="Fill-13"></path>
            <path d="M561.4609,36.4434 C563.4379,36.4434 565.5569,36.6444 567.8199,37.0454 L567.0039,41.1274 C565.0559,40.6404 563.0359,40.3964 560.9449,40.3964 C556.9629,40.3964 553.6969,42.0874 551.1479,45.4664 C548.5989,48.8474 547.3239,53.1154 547.3239,58.2714 L547.3239,84.0524 L543.0699,84.0524 L543.0699,37.3454 L546.6799,37.3454 L547.1089,45.7674 L547.4099,45.7674 C549.3289,42.3304 551.3769,39.9174 553.5549,38.5274 C555.7319,37.1384 558.3669,36.4434 561.4609,36.4434" id="Fill-14"></path>
            <path d="M581.0117,37.3457 L581.0117,67.5957 C581.0117,72.2937 581.9997,75.7097 583.9767,77.8437 C585.9527,79.9777 589.0177,81.0447 593.1717,81.0447 C598.7287,81.0447 602.8187,79.6417 605.4397,76.8337 C608.0607,74.0267 609.3707,69.4577 609.3707,63.1267 L609.3707,37.3457 L613.5817,37.3457 L613.5817,84.0527 L609.9727,84.0527 L609.1987,77.6077 L608.9417,77.6077 C605.9047,82.4777 600.5047,84.9117 592.7417,84.9117 C582.1147,84.9117 576.8007,79.2257 576.8007,67.8537 L576.8007,37.3457 L581.0117,37.3457 Z" id="Fill-15"></path>
            <path d="M60,76 L57,76 L57,75.982 C52.035,75.982 48.011,71.963 48.001,67 L48,67 L48,60 C48,58.896 47.104,58 46,58 C44.896,58 44,58.896 44,60 L44,67 L44.001,67 C44.011,74.172 49.826,79.982 57,79.982 L57,80 L60,80 C61.104,80 62,79.104 62,78 C62,76.896 61.104,76 60,76" id="Fill-16"></path>
            <path d="M92,81 C92,95.912 79.912,108 65,108 L55,108 C40.088,108 28,95.912 28,81 L28,51 C28,36.088 40.088,24 55,24 L65,24 C79.912,24 92,36.088 92,51 L92,81 Z M115,36 L120,36 L120,18 C120,8.396 112.474,0.572 103,0.051 L103,0 L18,0 C8.059,0 0,8.059 0,18 L0,36 L5,36 C13.285,36 20,42.715 20,51 L20,69 C20,77.284 13.285,84 5,84 L0,84 L0,102 C0,111.941 8.059,120 18,120 L103,120 L103,119.949 C112.474,119.428 120,111.604 120,102 L120,84 L115,84 C106.715,84 100,77.284 100,69 L100,51 C100,42.715 106.715,36 115,36 L115,36 Z" id="Fill-17"></path>
            <path d="M80,67 C80,76.389 72.389,84 63,84 L57,84 C47.611,84 40,76.389 40,67 L40,53 C40,43.611 47.611,36 57,36 L63,36 C72.389,36 80,43.611 80,53 L80,67 Z M65,28 L55,28 C42.299,28 32,38.298 32,51 L32,81 C32,93.703 42.299,104 55,104 L65,104 C77.703,104 88,93.703 88,81 L88,51 C88,38.298 77.703,28 65,28 L65,28 Z" id="Fill-18"></path>
        </g>
    </g>
</svg>